<svg fill="none" height="24" viewBox="0 0 24 24" width="24" xmlns="http://www.w3.org/2000/svg"><g stroke="#141b34" stroke-width="1.5"><path d="m10.3882 10.5688-1.59088 6.6823c-.04413.1854-.0662.2781-.08205.3694-.09888.5693-.03124 1.155.19478 1.6868.03625.0853.07885.1705.16407.3409.05618.1124.08427.1686.09691.2119.08294.2848-.09871.5787-.39045.6318-.04444.0081-.10687.0081-.23173.0081-1.1413 0-3.02525 0-4.021 0-1.16362 0-1.74543 0-2.04176-.3819-.29633-.382-.15522-.95.127-2.0861l1.35338-5.4479c.2543-1.0237-.51504-2.0153-1.56355-2.0153-.22253 0-.40292-.1816-.40292-.4055v-2.57388c0-2.46493.51119-2.97937 2.96053-2.97937h13.20717c.621 0 1.0893-.14653 1.5955-.48615.5912-.39666 1.3197-1.11782 1.8559-.11501.5385 1.00721.5679 5.23426-.3158 6.12361-.4335.4363-1.1313.4363-2.5269.4363zm0 0h-1.48029" stroke-linecap="round" stroke-linejoin="round"/><path d="m9 14.5h.87689c.95071 0 1.42611 0 1.84271-.0898 1.195-.2575 2.2067-1.0474 2.7464-2.1443.1881-.3824.3034-.8435.534-1.7659"/><path d="m2 7.5h2.02786c1.20282 0 1.80423 0 2.28753-.2987.48331-.2987.75227-.83661 1.29018-1.91245l.39443-.78885"/><path d="m22 7.5h-3" stroke-linecap="round"/></g></svg>