<svg viewBox="0 0 47.6 47" xmlns="http://www.w3.org/2000/svg"><g transform="translate(-4.57 -5)"><path d="m45.55 8.31a3.32 3.32 0 1 1 4.22 3.2v8.55h-1.77v-8.55a3.36 3.36 0 0 1 -2.45-3.2z"/><path d="m35.31 7.47v8.68c5.69 2.47 9.69 7.71 9.69 13.85 0 8.43-7.6 13.25-16.88 13.25s-16.92-4.87-16.92-13.25c0-6.09 4-11.33 9.64-13.8v-8.73c-7.77 3-12 11-12 20.31 0 12 8.62 18.8 19.28 18.8s19.29-6.81 19.29-18.8c-.05-9.34-4.33-17.3-12.1-20.31z"/><path d="m34.1 15.67v-8.62a21.51 21.51 0 0 0 -6-.91 19.52 19.52 0 0 0 -6 .91v8.62a18.14 18.14 0 0 1 12.05 0z"/><path d="m24.4 17.83a14.36 14.36 0 0 0 -8.92 6.93.6.6 0 0 0 .36.85l2.65.84a.66.66 0 0 0 .73-.3 9.9 9.9 0 0 1 6.2-4.94.66.66 0 0 0 .43-.72l-.67-2.23a.59.59 0 0 0 -.78-.43z"/><path d="m4.57 30.31v1.2a3 3 0 0 0 3 3h1a19.61 19.61 0 0 1 -.84-4.22z"/><path d="m7.59 27.78a28.48 28.48 0 0 1 .72-6.51h-.72a3 3 0 0 0 -3 3v4.83h3z"/><path d="m47.6 34.53h1a3 3 0 0 0 3-3v-1.2h-3.16a19.61 19.61 0 0 1 -.84 4.2z"/><path d="m48.56 21.27h-.72a28.48 28.48 0 0 1 .72 6.51 10.17 10.17 0 0 1 -.06 1.32h3v-4.82a2.89 2.89 0 0 0 -2.94-3.01z"/><path d="m42.42 43.44a21.89 21.89 0 0 1 -14.35 4.94 21.89 21.89 0 0 1 -14.34-4.94l-.84.85a.57.57 0 0 0 -.06.78c3.56 4.52 9 6.93 15.24 6.93s11.69-2.41 15.25-6.93a.56.56 0 0 0 -.06-.78z"/></g></svg>