<svg fill="none" height="24" viewBox="0 0 24 24" width="24" xmlns="http://www.w3.org/2000/svg"><g stroke="#141b34" stroke-width="1.5"><path d="m17.458 9.08015-.2911-.51396c-.2201-.3887-.3302-.58305-.5175-.66055-.1872-.0775-.3991-.01634-.8227.10596l-.7196.20622c-.2705.06345-.5542.02746-.8012-.10163l-.1987-.11663c-.2117-.13799-.3746-.34145-.4648-.5806l-.1969-.59843c-.1295-.39601-.1943-.59402-.3484-.70728-.1541-.11325-.3589-.11325-.7684-.11325h-.6574c-.4095 0-.6143 0-.7684.11325-.1541.11326-.2189.31127-.3484.70728l-.1969.59843c-.0902.23915-.2531.44261-.46484.5806l-.19867.11663c-.24696.12909-.53071.16508-.80117.10163l-.71963-.20622c-.42363-.1223-.63544-.18346-.82273-.10596s-.29736.27185-.51751.66055l-.29109.51396c-.20636.36435-.30953.54652-.28951.74046.02003.19389.15815.35019.43441.66279l.60805.6916c.14861.1914.25412.525.25412.8249 0 .3001-.10548.6336-.25411.825l-.60806.6917c-.27626.3125-.41438.4688-.43441.6627-.02002.194.08316.3762.28951.7405l.29108.5139c.22015.3887.33023.5831.51752.6606s.39911.0163.82275-.106l.71958-.2062c.27051-.0635.55432-.0274.8013.1017l.19865.1166c.21176.138.37456.3415.46476.5806l.1969.5985c.1295.396.1943.594.3484.7072.1541.1133.3589.1133.7684.1133h.6574c.4095 0 .6143 0 .7684-.1133.1541-.1132.2189-.3112.3484-.7072l.1969-.5985c.0902-.2391.253-.4426.4648-.5806l.1986-.1166c.247-.1291.5308-.1652.8013-.1017l.7196.2062c.4236.1223.6354.1835.8227.106s.2974-.2719.5176-.6605v-.0001l.291-.5139c.2064-.3643.3096-.5465.2895-.7405-.02-.1939-.1581-.3502-.4344-.6627l-.608-.6917c-.1487-.1914-.2541-.5249-.2541-.825 0-.2999.1055-.6335.2541-.8249l.608-.6916c.2763-.3126.4144-.4689.4344-.66279.0201-.19394-.0831-.37611-.2895-.74046z" stroke-linecap="round"/><circle cx="12" cy="12" r="1.75"/><path d="m19 2v2.85857c-1.8038-1.76825-4.2745-2.85857-7-2.85857-5.52285 0-10 4.47715-10 10 0 1.4222.29689 2.7751.83209 4m2.16791 6v-2.8586c1.80375 1.7683 4.27455 2.8586 7 2.8586 5.5228 0 10-4.4772 10-10 0-1.4222-.2969-2.77508-.8321-4" stroke-linecap="round" stroke-linejoin="round"/></g></svg>