<svg fill="none" height="24" viewBox="0 0 24 24" width="24" xmlns="http://www.w3.org/2000/svg"><g stroke="#141b34" stroke-linecap="round" stroke-linejoin="round" stroke-width="1.5"><circle cx="12" cy="12" r="10"/><path d="m8.00265 9.01879s.24991-.62262-.37888-.92756c-1.12027-.54328-2.58725 1.4708-.7575 2.58197 1.89207 1.149 3.13373-.97664 3.13373-2.58197"/><path d="m15.9974 9.98121s-.25.62259.3788.92759c1.1203.5432 2.5873-1.47083.7575-2.58197-1.892-1.14899-3.1337.97661-3.1337 2.58197"/><path d="m16 16.6-.2693-.2c-.7182-.5333-1.5635-.5333-2.2816 0l-.2693.2c-.7182.5333-1.5635.5333-2.2816 0l-.2694-.2c-.71811-.5333-1.56341-.5333-2.28157 0l-.34723.2579"/></g></svg>