<svg height="32" viewBox="0 0 32 32" width="32" xmlns="http://www.w3.org/2000/svg"><path d="m24.832 16.9688c-.2724-.6465-.5815-1.38-.8833-2.2852-.79-2.3682 1.7344-4.9522 1.7583-4.9766l-1.414-1.414c-.1407.1406-3.4234 3.4775-2.2417 7.0234.3261.978.6513 1.749.938 2.43a9.3812 9.3812 0 0 1 1.0107 4.2536 6.24 6.24 0 0 1 -4.1892 5.293 8.52 8.52 0 0 0 -2.1038-8l-1.0444-1.0445-.5815 1.3575c-1.8362 4.284-4.0211 6.154-5.3064 6.934a5.8437 5.8437 0 0 1 -2.7747-4.54 9.6239 9.6239 0 0 1 .9287-3.6289 11.3329 11.3329 0 0 0 1.0713-4.3711v-1.7783c.8735.36 2 1.3037 2 3.7783v2.6035l1.7432-1.9341c3.1118-3.4546 2.4624-7.5678 1.206-10.3081a4.4859 4.4859 0 0 1 3.0508 4.6387h2c0-5.5371-4.5786-7-7-7h-2l1.1992 1.5986c.1377.1856 2.8628 3.9278 1.3535 7.688a4.9426 4.9426 0 0 0 -4.5527-3.2866h-1v4a9.6239 9.6239 0 0 1 -.9287 3.6289 11.3329 11.3329 0 0 0 -1.0713 4.3711c0 3.8477 3.8232 8 10 8s10-4.1523 10-8a11.3771 11.3771 0 0 0 -1.168-5.0312zm-11.9968 10.5576a16.4987 16.4987 0 0 0 4.3665-5.5987 6.1053 6.1053 0 0 1 .2573 5.9717 11.3213 11.3213 0 0 1 -1.459.1006 10.3278 10.3278 0 0 1 -3.1648-.4736z"/><path d="m0 0h32v32h-32z" fill="none"/></svg>