<svg fill="none" height="24" viewBox="0 0 24 24" width="24" xmlns="http://www.w3.org/2000/svg"><g stroke="#141b34" stroke-linecap="round" stroke-width="1.5"><path d="m2 10c.77968-3.81591 3.66918-6.87068 7.40618-7.91023.31369-.08726.47053-.13089.55501-.03741.08451.09348.02225.24806-.10222.5572l-.85897 1.89044m5-2.5c3.8159.77968 6.8707 3.66918 7.9102 7.40618.0873.31369.1309.47053.0374.55501-.0934.08451-.248.02225-.5572-.10222l-1.8904-.85897m2.5 5c-.7797 3.8159-3.6692 6.8707-7.4062 7.9102-.3137.0873-.4705.1309-.555.0374-.0845-.0934-.0222-.248.1022-.5572l.859-1.8904m-5 2.5c-3.81591-.7797-6.87068-3.6692-7.91023-7.4062-.08726-.3137-.13089-.4705-.03741-.555s.24806-.0222.5572.1022l1.89044.859"/><path d="m15 12c0 1.6569-1.3431 3-3 3m3-3c0-1.6569-1.3431-3-3-3m3 3h1.5m-4.5 3c-1.6569 0-3-1.3431-3-3m3 3v1.5m-3-4.5c0-1.6569 1.3431-3 3-3m-3 3h-1.5m4.5-3v-1.5m2.1213 2.37869 1.0607-1.06066m-5.30332 5.30327-1.06066 1.0607m5.30328-1.0607 1.0607 1.0607m-5.30332-5.30331-1.06066-1.06066" stroke-linejoin="round"/></g></svg>