<svg fill="none" height="24" viewBox="0 0 24 24" width="24" xmlns="http://www.w3.org/2000/svg"><g stroke="#141b34" stroke-linecap="round" stroke-linejoin="round" stroke-width="1.5"><path d="m15.5 21.3704c-1.0893.4071-2.2687.6296-3.5.6296s-2.41067-.2225-3.5-.6296m-5.16218-4.3704c-.85085-1.4709-1.33782-3.1786-1.33782-5 0-5.52285 4.47715-10 10-10 5.5228 0 10 4.47715 10 10 0 1.8214-.487 3.5291-1.3378 5"/><path d="m9 15.9998c.83563-.6278 1.8744-.9998 3-.9998s2.1644.372 3 .9998"/><path d="m9.5 9.5h-1.29289c-.45276 0-.88697.17986-1.20711.5m7.5-.5h1.2929c.4527 0 .887.17986 1.2071.5"/><path d="m6 13v9m12-9v9"/></g></svg>