<svg fill="none" height="24" viewBox="0 0 24 24" width="24" xmlns="http://www.w3.org/2000/svg"><g stroke="#141b34" stroke-width="1.5"><g stroke-linejoin="round"><path d="m5.2057 13.5c1.41154-2.5943.90064-5.99567-1.2057-8"/><path d="m18.7943 13.5c-1.4115-2.5943-.9006-5.99567 1.2057-8"/><path d="m3.84563 13.5h16.30877c1.4608 0 1.9564-.3144 1.8255-1.8093-.4398-5.02039-4.7458-9.1907-9.9799-9.1907-5.23407 0-9.54014 4.17031-9.97985 9.1907-.13093 1.4949.36469 1.8093 1.82548 1.8093z"/></g><path d="m4 19c0-1.5366 2.1186-1.8857 3.23329-2.3312 1.57449-.6292 3.26671.5784 3.26671 2.3312s-1.69222 2.9604-3.26671 2.3312c-1.11469-.4455-3.23329-.7946-3.23329-2.3312zm0 0h-2m18 0c0-1.5366-2.1186-1.8857-3.2333-2.3312-1.5745-.6292-3.2667.5784-3.2667 2.3312s1.6922 2.9604 3.2667 2.3312c1.1147-.4455 3.2333-.7946 3.2333-2.3312zm0 0h2m-11.5-.5c.2994-.5978.859-1 1.5-1s1.2006.4022 1.5 1" stroke-linecap="round"/></g></svg>