<svg fill="none" height="24" viewBox="0 0 24 24" width="24" xmlns="http://www.w3.org/2000/svg"><g stroke="#141b34" stroke-width="1.5"><path d="m16 4.5c0 .82843-.6716 1.5-1.5 1.5s-1.5-.67157-1.5-1.5.6716-1.5 1.5-1.5 1.5.67157 1.5 1.5z"/><g stroke-linecap="round" stroke-linejoin="round"><path d="m5 12 1.47621-2.32572c.26071-.41074.39107-.61611.5613-.783.17023-.1669.37427-.28935.78235-.53427l.92173-.55321c.8625-.51765 1.29371-.77648 1.77061-.80177.4768-.0253.9307.18658 1.8385.61033l1.695.79122c.3732.17424.5598.26135.7231.38326.1158.0864.2224.1855.3182.29562.1351.15538.2402.33931.4503.70717.3698.64727.5547.97097.8154 1.19897.184.1609.394.2858.6201.3687.3203.1175.6796.1175 1.3983.1175h.6289"/><path d="m11.5 7.5-3.5 6.5m0 0 1.44682 2.0256c.59768.8367.46345 1.9904-.31046 2.6676l-2.63636 2.3068m1.5-7h3.5m5.5 4-2.4-3.2c-.3777-.5036-.9705-.8-1.6-.8h-1.5m0 0 3.5-5"/></g></g></svg>