<svg viewBox="0 0 14 14" xmlns="http://www.w3.org/2000/svg"><path d="m1 8.4984425c.4049844-.01869.7476636-.174455 1.0280374-.46729s.423676-.641744.423676-1.046729c0 .404985.1370716.753894.4174455 1.046729.2803738.292835.6230529.448598 1.0280374.46729-.4049845.01869-.7476636.174455-1.0280374.46729-.2803739.292834-.4174455.641744-.4174455 1.0467295 0-.4049855-.1370717-.7538955-.423676-1.0467295-.2803738-.292835-.623053-.448599-1.0280374-.46729zm1.4517134-4.485981c.7850467-.03738 1.4517134-.34268 2-.915888.5482866-.573209.8224299-1.252337.8224299-2.043614 0 .791277.2741433 1.470405.8224297 2.043614.548287.573208 1.214953.872274 2.006231.915888-.517134.02492-.990654.168224-1.426792.442367-.429906.267913-.772585.629284-1.028037 1.077882-.2492211.448598-.3738317.928349-.3738317 1.451713 0-.791277-.2741433-1.476635-.8224299-2.049844-.5482866-.579439-1.2149533-.884735-2-.922118zm2.0685358 6.7102805c.5919003-.02492 1.0965732-.255452 1.5077878-.685358.411215-.4299075.616823-.9408105.616823-1.5389415 0 .598131.205607 1.109034.616822 1.5389405.411215.429907.909658.660437 1.501558.685359-.5919.02492-1.090343.255452-1.501558.685357-.411215.429907-.616822.940811-.616822 1.538942 0-.598131-.205608-1.109035-.616823-1.538942-.4174451-.429905-.9158875-.654205-1.5077878-.685357zm4.2429908-2.9532715c.5919-.02492 1.090343-.255452 1.501558-.685358.411214-.429907.610591-.94081.610591-1.545172 0 .598131.205608 1.109035.616823 1.538941.411215.429907.915888.660436 1.507788.685358-.5919.02492-1.096573.255452-1.507788.685359-.411215.429906-.616823.94081-.616823 1.53894 0-.59813-.205607-1.109034-.610591-1.53894-.411215-.423676-.909658-.654206-1.501558-.679128z"/></svg>