<svg fill="none" height="24" viewBox="0 0 24 24" width="24" xmlns="http://www.w3.org/2000/svg"><g stroke="#141b34" stroke-linecap="round" stroke-linejoin="round" stroke-width="1.5"><path d="m9.85221 21.0098-4.41113-2.7828c-1.81486-1.1449-2.72229-1.7173-2.90837-2.658-.18608-.9406.42901-1.846 1.65919-3.6568l4.41113-6.49306c1.54857-2.27943 2.32287-3.41914 3.39697-3.41914s1.8484 1.13971 3.397 3.41914l4.4111 6.49306c1.2302 1.8108 1.8453 2.7162 1.6592 3.6568-.1861.9407-1.0935 1.5131-2.9084 2.658l-4.4111 2.7828c-1.0464.6601-1.5697.9902-2.1478.9902s-1.1014-.3301-2.14779-.9902z"/><path d="m12 2 2 12m7 1.569-7-1.569m-2 8 2-8m-11 1.569 11-1.569"/></g></svg>