<svg fill="none" height="24" viewBox="0 0 24 24" width="24" xmlns="http://www.w3.org/2000/svg"><g stroke="#141b34" stroke-linecap="round" stroke-linejoin="round" stroke-width="1.5"><path d="m10.7184 6.86177 4.2816 9.13823c-2.1667 0-2.8261-1.1429-5.08696-2.2857-1.80869-.9143-4.33333-.7619-5.08695-.5714l3.0313-2.1431c.30846-.2181.46269-.3271.51198-.4931s-.02044-.3416-.1599-.69264l-.42428-1.06813c-.15865-.3994-.23798-.5991-.38135-.74396-.04996-.05047-.10514-.09547-.16462-.13425-.17074-.11132-.38232-.14885-.80546-.22393l-3.25061-.57673c-.68445-.12144-1.18315-.71641-1.18315-1.41155 0-.87329.77418-1.5437 1.63851-1.41886l4.39579.63487c.79174.11434 1.18761.17152 1.5178.36025.13764.07868.26544.17344.38071.2823.27649.26113.44619.62332.78559 1.3477z"/><circle cx="19" cy="10" r="3"/><path d="m2 18.0843c1.05556-3.5316 5.7685-1.9107 9.5 0s7.5 3.1265 9.5 0"/></g></svg>