<svg fill="none" height="24" viewBox="0 0 24 24" width="24" xmlns="http://www.w3.org/2000/svg"><g stroke="#141b34" stroke-linecap="round" stroke-linejoin="round" stroke-width="1.5"><path d="m13 2.04938c-.3289-.03266-.6625-.04938-1-.04938-5.52285 0-10 4.47715-10 10 0 5.5228 4.47715 10 10 10 5.5228 0 10-4.4772 10-10 0-.6849-.0689-1.3538-.2-2"/><path d="m10 11h-1.29289c-.45276 0-.88697-.1799-1.20711-.5m6.5.5h1.2929c.4527 0 .887-.1799 1.2071-.5"/><circle cx="12" cy="16" r="2"/><path d="m17 2h2.9474c.6201 0 .9301 0 1.0127.20009.0826.2001-.1284.44014-.5503.92021l-2.4252 2.7594c-.4219.48007-.6329.72011-.5503.92021.0826.20009.3926.20009 1.0127.20009h2.553"/></g></svg>