<svg fill="none" height="24" viewBox="0 0 24 24" width="24" xmlns="http://www.w3.org/2000/svg"><g stroke="#141b34" stroke-linecap="round" stroke-linejoin="round" stroke-width="1.5"><path d="m21.6256 8.5c.6547-2.26642.4709-4.23383-.7104-5.41516-2.4992-2.499177-8.5167-.53371-13.44036 4.39-.52599.52598-1.01821 1.06445-1.47484 1.60978m12 5.83078c-.4566.5453-.9489 1.0838-1.4748 1.6098-4.9237 4.9237-10.94118 6.8891-13.44036 4.39-1.2674-1.2674-1.38659-3.4397-.55404-5.9152"/><path d="m12.75 9-1.9457 2.3004c-.2375.308-.3562.4619-.2826.5808.0735.1188.2876.1188.7158.1188h1.525c.4282 0 .6423 0 .7158.1188.0736.1189-.0451.2728-.2826.5808l-1.9582 2.3004"/><path d="m9.5 18.3399c-.68728-.5495-1.36602-1.1556-2.02516-1.8147-4.92371-4.9237-6.889179-10.94118-4.39-13.44036 1.2674-1.2674 3.43962-1.38659 5.91516-.55404m5.5 18.7589c2.6813 1.0229 5.0631.9775 6.4152-.3745 2.4991-2.4992.5337-8.5167-4.39-13.44036-.6592-.65914-1.3379-1.26527-2.0252-1.81476"/></g></svg>