<svg fill="none" height="24" viewBox="0 0 24 24" width="24" xmlns="http://www.w3.org/2000/svg"><g stroke="#141b34" stroke-linejoin="round" stroke-width="1.5"><g stroke-linecap="round"><path d="m21 14.25-.8311-.659c-.9459-.75-1.4189-1.125-1.4189-1.591s.473-.841 1.4189-1.591l.8311-.659m-18 0 .83115.659c.9459.75 1.41885 1.125 1.41885 1.591s-.47295.841-1.41885 1.591l-.83115.659"/><path d="m14.5718 21 .1564-1.0588c.178-1.205.2669-1.8075.6737-2.0426s.9725-.011 2.1039.4372l.9942.3938m-9.0718-15.7296-.15638 1.0588c-.17798 1.20499-.26696 1.80749-.67374 2.04259-.40678.23511-.9725.01101-2.10392-.43719l-.99416-.39382"/><path d="m5 18.7317 1.07032-.3942c1.21808-.4486 1.82715-.673 2.26489-.4381s.53323.8373.7242 2.042l.16781 1.0586m9.77278-15.73175-1.0703.39424c-1.2181.44866-1.8272.67299-2.2649.43811-.4377-.23489-.5332-.83727-.7242-2.04201l-.1678-1.05859"/></g><path d="m19 12.0003h-14m10.5 5.9995-7-11.9998m7 .00025-7 11.99975"/></g></svg>