<svg fill="none" height="24" viewBox="0 0 24 24" width="24" xmlns="http://www.w3.org/2000/svg"><path d="m8.62814 12.6736h-.45896c-1.48373 0-2.2256 0-2.54182-.4892-.31622-.4891-.01492-1.1706.58768-2.53357l1.81164-4.0976c.54789-1.23923.82184-1.85885 1.35329-2.20604s1.20593-.34719 2.55503-.34719h2.0894c1.6388 0 2.4582 0 2.7672.53535.3091.53535-.0974 1.25053-.9105 2.68088l-1.0719 1.88565c-.4042.71107-.6063 1.06661-.6035 1.35764.0037.37823.2048.72668.5297.91748.25.1469.6573.1469 1.472.1469 1.0299 0 1.5449 0 1.8131.1783.3484.2316.5308.646.4669 1.061-.0492.3194-.3956.7024-1.0884 1.4685l-5.5351 6.1206c-1.0872 1.2022-1.6308 1.8033-1.99583 1.6131-.36504-.1903-.18974-.9832.16083-2.5692l.6868-3.1066c.2669-1.2076.4004-1.8114.0794-2.2137s-.93633-.4023-2.16696-.4023z" stroke="#141b34" stroke-linejoin="round" stroke-width="1.5"/></svg>