<svg fill="none" height="24" viewBox="0 0 24 24" width="24" xmlns="http://www.w3.org/2000/svg"><g stroke="#141b34" stroke-linecap="round" stroke-linejoin="round" stroke-width="1.5"><circle cx="12" cy="12" r="10"/><path d="m9 16.9998c.83563-.6278 1.8744-.9998 3-.9998s2.1644.372 3 .9998"/><path d="m10 9.5c0 .8284-.67157 1.5-1.5 1.5s-1.5-.6716-1.5-1.5c0-.82843.67157-1.5 1.5-1.5s1.5.67157 1.5 1.5z"/><path d="m17 9.5c0 .8284-.6716 1.5-1.5 1.5s-1.5-.6716-1.5-1.5c0-.82843.6716-1.5 1.5-1.5s1.5.67157 1.5 1.5z"/></g></svg>