<svg fill="none" height="24" viewBox="0 0 24 24" width="24" xmlns="http://www.w3.org/2000/svg"><g stroke="#141b34" stroke-width="1.5"><path d="m5.18007 15.2964c-1.25758.7371-4.554857 2.2422-2.54659 4.1256.98102.92 2.07362 1.578 3.44729 1.578h7.83843c1.3737 0 2.4663-.658 3.4473-1.578 2.0083-1.8834-1.289-3.3885-2.5466-4.1256-2.949-1.7285-6.69084-1.7285-9.63983 0z" stroke-linecap="round" stroke-linejoin="round"/><path d="m14 7c0 2.20914-1.7909 4-4 4-2.20914 0-4-1.79086-4-4s1.79086-4 4-4c2.2091 0 4 1.79086 4 4z"/><path d="m19.5 4v5m2.5-2.5h-5" stroke-linecap="round" stroke-linejoin="round"/></g></svg>